<svg id="Layer_1" data-name="Layer 1" xmlns="http://www.w3.org/2000/svg" viewBox="0 0 1018.15 202.23"><defs><style>.cls-1{fill:#701a75;}.cls-2{fill:#c026d3;}.cls-3{fill:none;stroke:#c026d3;stroke-miterlimit:10;stroke-width:3px;}.cls-4{fill:#e11d48;}</style></defs><path class="cls-1" d="M840.76,54.71V32.22h22.48V54.71ZM952.87,32.22H975V54.71H952.87Zm44.65,67.14V54.71H1020v89.62H997.52v22.18H975V189h22.49v22.49H1020v22.17H975V211.48H952.86V189H863.23v22.49H840.75v22.17H796.09V211.48h22.48V189h22.18V166.51H818.57V144.33H796.09V54.71h22.48V99.36h22.18V77.19h22.48V54.71h22.48V77.19h44.66V54.71h22.49V77.19H975V99.36Zm-111.8,22.49V99.36H863.24v22.49Zm67.15,0V99.36H930.38v22.49Z" transform="translate(-1.85 -32.22)"/><path class="cls-2" d="M56.88,52.92c-4.78,1.6-9.3,3.1-13.51,4.38C32.59,60.59,24.29,65.1,18,71.11,5.26,83.19,3.44,98.88,3.17,109.64L1.88,161.83c-.69,27.94,10.9,44.69,37.56,54.34,4.14,1.49,8.59,3.24,13.3,5.08,25.38,9.94,51.61,20.22,65.76,6.76.4-.37.78-.76,1.15-1.17,13.52-15-.22-37.78-12.33-57.84-1.92-3.18-3.76-6.23-5.34-9-2.73-4.84-3.11-9.1-2.86-19.46l0-1.42,0-.87.06-2.3c.26-10.36.85-14.6,3.83-19.3,1.7-2.69,3.68-5.64,5.76-8.7,13.1-19.42,28-41.44,15.18-57.15C111,34.84,83.51,44,56.88,52.92Zm57.92,5.19c9,11.08-11.19,36.07-21.66,52.59-4.62,7.31-5.26,14-5.53,24.93l-.06,2.29c0,.77,0,1.53-.06,2.29-.26,10.89,0,17.64,4.29,25.18,9.63,17,28.57,43,19,53.64-.18.19-.35.37-.54.55C99.35,230,66.52,213.86,43,205.36,19.08,196.71,12.44,182.67,13,162c.1-4,.22-8.88.37-14.91s.33-13.5.55-22.19c.15-6,.28-11,.37-14.91.32-12.82,3.27-23,11.28-30.58,4.89-4.64,11.65-8.36,20.87-11.16C70.72,60.87,105,46.1,114.8,58.11Zm-58.21,63,8.27-7.87L57,104.93l-8.27,7.87Zm-11.8-12.41,8.27-7.87-7.87-8.27-8.27,7.87ZM57.2,96.86,65.47,89,57.6,80.72l-8.27,7.87ZM69,109.27l8.27-7.87L69.4,93.13,61.13,101Zm-8,55,.15-6.14a5.48,5.48,0,1,0-11-.28L50,163.94l-6.14-.16a5.48,5.48,0,0,0-.27,11l6.14.15L49.57,181a5.48,5.48,0,0,0,11,.28l.15-6.14,6.32.16a5.48,5.48,0,0,0,.27-11Z" transform="translate(-1.85 -32.22)"/><path class="cls-3" d="M200.53,58.25H181.07L140.29,221.11h28l5.32-25.32H208l5.32,25.32h28ZM179.16,169.47,190.82,114l11.63,55.43Z" transform="translate(-1.85 -32.22)"/><polygon class="cls-3" points="362.34 26.03 362.34 188.89 337.24 188.89 337.24 87.23 314.74 160.98 299.83 160.98 277.75 90.7 277.75 188.89 252.11 188.89 252.11 26.03 280.02 26.03 307.22 116.19 335.1 26.03 362.34 26.03"/><polygon class="cls-3" points="411.63 53.36 411.63 94.33 452.72 94.33 452.72 121.57 411.63 121.57 411.63 161.56 458.87 161.56 458.87 188.89 383.5 188.89 383.5 26.03 458.87 26.03 458.87 53.36 411.63 53.36"/><polygon class="cls-4" points="947.11 26.03 947.11 52.92 918.76 52.92 918.76 188.89 890.88 188.89 890.88 52.92 862.43 52.92 862.43 26.03 947.11 26.03"/><path class="cls-4" d="M635.92,58.25H664V180.11q0,13.42-4.81,23a33.13,33.13,0,0,1-14,14.63c-6.12,3.37-13.38,5-21.82,5s-15.61-1.66-21.73-5a32.92,32.92,0,0,1-13.95-14.63q-4.74-9.56-4.75-23V58.25H611V180.88q0,6.63,3.25,10.25t9.08,3.64c4,0,7-1.21,9.24-3.64s3.31-5.83,3.31-10.25Z" transform="translate(-1.85 -32.22)"/><path class="cls-4" d="M562.1,182.69v-86Q562.1,84,557,75a33.07,33.07,0,0,0-14.84-13.7c-6.5-3.16-14.21-4.72-23.19-4.72s-16.7,1.56-23.17,4.72A32.92,32.92,0,0,0,481,75q-5.11,9-5.1,21.69v86q0,12.66,5.1,21.6A33.31,33.31,0,0,0,495.8,218c6.47,3.16,14.21,4.75,23.17,4.75s16.69-1.59,23.19-4.75a27.94,27.94,0,0,0,2.48-1.34l14.75,13.7,17.72-20.61L560.8,194.61A51.84,51.84,0,0,0,562.1,182.69Zm-28.45-13.32-5.92-5.51-17.94,20.49,11.15,10.32c-.64.06-1.31.1-2,.1a16.3,16.3,0,0,1-7.91-1.79,11.61,11.61,0,0,1-5-5.19,19,19,0,0,1-1.68-8.35V99.7a18.73,18.73,0,0,1,1.68-8.25,11.63,11.63,0,0,1,5-5.2A16.3,16.3,0,0,1,519,84.44a16.53,16.53,0,0,1,8,1.81,11.51,11.51,0,0,1,5,5.2,18.59,18.59,0,0,1,1.69,8.25Z" transform="translate(-1.85 -32.22)"/><path class="cls-4" d="M851.73,149.43c2.84,5.13,4.27,11.79,4.27,19.91V181.8c0,8.67-1.65,16-5,22.11a33.46,33.46,0,0,1-14.5,14q-9.51,4.88-22.62,4.87-13.67,0-23.19-4.87a32.6,32.6,0,0,1-14.43-14.37c-3.28-6.37-4.94-14.05-4.94-23.1v-5.26l28-.22v5.26q-.09,7.31,3.64,11.21t10.7,3.92c4.56,0,8.06-1.18,10.51-3.6s3.7-5.67,3.7-9.85V168.8a12.86,12.86,0,0,0-2.61-8.12,21.28,21.28,0,0,0-6.79-5.71c-2.77-1.53-6.53-3.37-11.31-5.54-.28-.16-.54-.29-.73-.41l-.61-.29-1.56-.76a97.43,97.43,0,0,1-16.47-9.37,39.33,39.33,0,0,1-11.28-13.1c-3-5.48-4.52-12.42-4.52-20.77V97.12q0-12.77,5-21.86a33.25,33.25,0,0,1,14.37-13.89c6.28-3.18,13.86-4.81,22.75-4.81q13,0,22.11,4.88a32.14,32.14,0,0,1,13.86,14.33q4.68,9.47,4.81,22.91v5.61l-28,.22V98.9c0-4.84-1.11-8.57-3.31-11.15s-5.35-3.85-9.46-3.85c-4.49,0-8,1-10.42,3.18s-3.7,5.13-3.7,9v10.07a13.53,13.53,0,0,0,2.65,8.34,20.93,20.93,0,0,0,6.5,5.77q3.83,2.25,10.8,5.51a11,11,0,0,1,2.16,1c.8.44,1.57.83,2.3,1.15a2.06,2.06,0,0,1,.7.22,3.2,3.2,0,0,1,.54.32,121,121,0,0,1,15.74,8.95A34.71,34.71,0,0,1,851.73,149.43Z" transform="translate(-1.85 -32.22)"/><polygon class="cls-4" points="681.54 26.03 756.91 26.03 756.91 53.36 709.67 53.36 709.67 94.33 750.76 94.33 750.76 121.57 709.67 121.57 709.67 161.56 756.91 161.56 756.91 188.89 681.54 188.89 681.54 26.03"/></svg>