<svg xmlns="http://www.w3.org/2000/svg" xmlns:xlink="http://www.w3.org/1999/xlink" viewBox="0 0 1920 1080"><defs><style>.cls-1{isolation:isolate;}.cls-2{mix-blend-mode:overlay;}.cls-3{fill:url(#Degradado_sin_nombre_210);}.cls-4{fill:url(#Degradado_sin_nombre_67);}.cls-5{fill:url(#Degradado_sin_nombre_67-2);}.cls-6{fill:url(#Degradado_sin_nombre_75);}.cls-7{fill:url(#Degradado_sin_nombre_75-2);}.cls-8{fill:url(#Degradado_sin_nombre_77);}.cls-9{fill:url(#Degradado_sin_nombre_46);}.cls-10{fill:url(#Degradado_sin_nombre_83);}.cls-11{fill:url(#Degradado_sin_nombre_75-3);}.cls-12{fill:url(#Degradado_sin_nombre_46-2);}.cls-13{fill:url(#Degradado_sin_nombre_46-3);}.cls-14{fill:url(#Degradado_sin_nombre_46-4);}.cls-15{fill:url(#Degradado_sin_nombre_46-5);}.cls-16{fill:url(#Degradado_sin_nombre_70);}.cls-17{fill:url(#Degradado_sin_nombre_75-4);}.cls-18{fill:url(#Degradado_sin_nombre_75-5);}.cls-19{fill:url(#Degradado_sin_nombre_77-2);}.cls-20{fill:url(#Degradado_sin_nombre_46-6);}.cls-21{fill:url(#Degradado_sin_nombre_70-2);}.cls-22{fill:url(#Degradado_sin_nombre_75-6);}.cls-23{fill:url(#Degradado_sin_nombre_67-3);}.cls-24{fill:url(#Degradado_sin_nombre_67-4);}.cls-25{fill:url(#Degradado_sin_nombre_49);}.cls-26{fill:url(#Degradado_sin_nombre_49-2);}.cls-27{fill:url(#Degradado_sin_nombre_70-3);}.cls-28{fill:url(#Degradado_sin_nombre_70-4);}.cls-29{fill:url(#Degradado_sin_nombre_46-7);}.cls-30{fill:url(#Degradado_sin_nombre_75-7);}.cls-31{fill:url(#Degradado_sin_nombre_46-8);}.cls-32{fill:url(#Degradado_sin_nombre_46-9);}.cls-33{fill:url(#Degradado_sin_nombre_46-10);}.cls-34{fill:url(#Degradado_sin_nombre_70-5);}.cls-35{fill:url(#Degradado_sin_nombre_49-3);}.cls-36{fill:url(#Degradado_sin_nombre_49-4);}.cls-37{fill:url(#Degradado_sin_nombre_70-6);}.cls-38{fill:url(#Degradado_sin_nombre_46-11);}.cls-39{fill:url(#Degradado_sin_nombre_70-7);}.cls-40{fill:url(#Degradado_sin_nombre_70-8);}.cls-41{fill:#7e22ce;}.cls-42{fill:url(#Degradado_sin_nombre_210-2);}.cls-43{fill:url(#Degradado_sin_nombre_210-3);}.cls-44{fill:url(#Degradado_sin_nombre_210-4);}.cls-45{fill:url(#Degradado_sin_nombre_210-5);}.cls-46{fill:url(#Degradado_sin_nombre_210-6);}.cls-47{fill:url(#Degradado_sin_nombre_210-7);}.cls-48{fill:url(#Degradado_sin_nombre_210-8);}</style><linearGradient id="Degradado_sin_nombre_210" x1="150.51" y1="580.49" x2="514.69" y2="580.49" gradientUnits="userSpaceOnUse"><stop offset="0" stop-color="#fff" stop-opacity="0.1"/><stop offset="1" stop-color="#fff"/></linearGradient><linearGradient id="Degradado_sin_nombre_67" x1="1578.95" y1="555" x2="1578.95" y2="191.49" gradientUnits="userSpaceOnUse"><stop offset="0" stop-color="#fd6600"/><stop offset="0" stop-color="#fd6500" stop-opacity="0.99"/><stop offset="0.14" stop-color="#fe4b00" stop-opacity="0.73"/><stop offset="0.27" stop-color="#fe3400" stop-opacity="0.51"/><stop offset="0.39" stop-color="#fe2100" stop-opacity="0.33"/><stop offset="0.51" stop-color="#ff1300" stop-opacity="0.18"/><stop offset="0.62" stop-color="#ff0800" stop-opacity="0.08"/><stop offset="0.72" stop-color="#ff0200" stop-opacity="0.02"/><stop offset="0.8" stop-color="red" stop-opacity="0"/></linearGradient><linearGradient id="Degradado_sin_nombre_67-2" x1="1257.95" y1="980" x2="1257.95" y2="616.49" xlink:href="#Degradado_sin_nombre_67"/><linearGradient id="Degradado_sin_nombre_75" x1="1821.21" y1="413.72" x2="1821.21" y2="-297.98" gradientUnits="userSpaceOnUse"><stop offset="0" stop-color="#fd00d4"/><stop offset="0" stop-color="#fb00d4" stop-opacity="0.99"/><stop offset="0.14" stop-color="#b900e0" stop-opacity="0.73"/><stop offset="0.27" stop-color="#8100e9" stop-opacity="0.51"/><stop offset="0.39" stop-color="#5300f1" stop-opacity="0.33"/><stop offset="0.51" stop-color="#2f00f7" stop-opacity="0.18"/><stop offset="0.62" stop-color="#1500fb" stop-opacity="0.08"/><stop offset="0.72" stop-color="#0500fe" stop-opacity="0.02"/><stop offset="0.8" stop-color="blue" stop-opacity="0"/></linearGradient><linearGradient id="Degradado_sin_nombre_75-2" x1="663.21" y1="197.72" x2="663.21" y2="-513.98" xlink:href="#Degradado_sin_nombre_75"/><linearGradient id="Degradado_sin_nombre_77" x1="1286.84" y1="285.44" x2="1286.84" y2="-303.8" gradientUnits="userSpaceOnUse"><stop offset="0" stop-color="aqua"/><stop offset="0.01" stop-color="#03fbff" stop-opacity="0.98"/><stop offset="0.12" stop-color="#2eb9ff" stop-opacity="0.73"/><stop offset="0.23" stop-color="#5381ff" stop-opacity="0.51"/><stop offset="0.34" stop-color="#7153ff" stop-opacity="0.32"/><stop offset="0.44" stop-color="#882fff" stop-opacity="0.18"/><stop offset="0.53" stop-color="#9915ff" stop-opacity="0.08"/><stop offset="0.62" stop-color="#a305ff" stop-opacity="0.02"/><stop offset="0.68" stop-color="#a700ff" stop-opacity="0"/></linearGradient><linearGradient id="Degradado_sin_nombre_46" x1="880.4" y1="326.85" x2="880.4" y2="-351" gradientUnits="userSpaceOnUse"><stop offset="0" stop-color="#6dff01"/><stop offset="0.06" stop-color="#66f311" stop-opacity="0.94"/><stop offset="0.72" stop-color="#1d70ba" stop-opacity="0.27"/><stop offset="1" stop-color="#003bff" stop-opacity="0"/></linearGradient><linearGradient id="Degradado_sin_nombre_83" x1="1679.59" y1="797.76" x2="1679.59" y2="347.75" gradientUnits="userSpaceOnUse"><stop offset="0.17" stop-color="aqua"/><stop offset="0.17" stop-color="#03fbff" stop-opacity="0.98"/><stop offset="0.31" stop-color="#2eb9ff" stop-opacity="0.73"/><stop offset="0.45" stop-color="#5381ff" stop-opacity="0.51"/><stop offset="0.58" stop-color="#7153ff" stop-opacity="0.32"/><stop offset="0.7" stop-color="#882fff" stop-opacity="0.18"/><stop offset="0.81" stop-color="#9915ff" stop-opacity="0.08"/><stop offset="0.92" stop-color="#a305ff" stop-opacity="0.02"/><stop offset="1" stop-color="#a700ff" stop-opacity="0"/></linearGradient><linearGradient id="Degradado_sin_nombre_75-3" x1="1009.9" y1="554.11" x2="1009.9" y2="104.1" xlink:href="#Degradado_sin_nombre_75"/><linearGradient id="Degradado_sin_nombre_46-2" x1="1363.63" y1="403.73" x2="1363.63" y2="89.47" xlink:href="#Degradado_sin_nombre_46"/><linearGradient id="Degradado_sin_nombre_46-3" x1="968.63" y1="1001.73" x2="968.63" y2="687.47" xlink:href="#Degradado_sin_nombre_46"/><linearGradient id="Degradado_sin_nombre_46-4" x1="1132.12" y1="877.43" x2="1132.12" y2="393.65" xlink:href="#Degradado_sin_nombre_46"/><linearGradient id="Degradado_sin_nombre_46-5" x1="1810.12" y1="974.43" x2="1810.12" y2="490.65" xlink:href="#Degradado_sin_nombre_46"/><linearGradient id="Degradado_sin_nombre_70" x1="1205.43" y1="574.36" x2="1205.43" y2="361.97" gradientUnits="userSpaceOnUse"><stop offset="0" stop-color="#ffff01"/><stop offset="0.01" stop-color="#fffb05" stop-opacity="0.98"/><stop offset="0.14" stop-color="#ffb946" stop-opacity="0.73"/><stop offset="0.27" stop-color="#ff817f" stop-opacity="0.51"/><stop offset="0.39" stop-color="#ff53ad" stop-opacity="0.32"/><stop offset="0.51" stop-color="#ff2fd0" stop-opacity="0.18"/><stop offset="0.62" stop-color="#ff15ea" stop-opacity="0.08"/><stop offset="0.72" stop-color="#ff05fa" stop-opacity="0.02"/><stop offset="0.8" stop-color="#f0f" stop-opacity="0"/></linearGradient><linearGradient id="Degradado_sin_nombre_75-4" x1="1460.23" y1="640.06" x2="1460.23" y2="319.45" xlink:href="#Degradado_sin_nombre_75"/><linearGradient id="Degradado_sin_nombre_75-5" x1="1363.23" y1="984.06" x2="1363.23" y2="663.45" xlink:href="#Degradado_sin_nombre_75"/><linearGradient id="Degradado_sin_nombre_77-2" x1="103.84" y1="490.44" x2="103.84" y2="-98.8" xlink:href="#Degradado_sin_nombre_77"/><linearGradient id="Degradado_sin_nombre_46-6" x1="180.63" y1="608.73" x2="180.63" y2="294.47" xlink:href="#Degradado_sin_nombre_46"/><linearGradient id="Degradado_sin_nombre_70-2" x1="22.43" y1="779.36" x2="22.43" y2="566.97" xlink:href="#Degradado_sin_nombre_70"/><linearGradient id="Degradado_sin_nombre_75-6" x1="277.23" y1="845.06" x2="277.23" y2="524.45" xlink:href="#Degradado_sin_nombre_75"/><linearGradient id="Degradado_sin_nombre_67-3" x1="1089.4" y1="181.87" x2="1089.4" y2="-30.52" xlink:href="#Degradado_sin_nombre_67"/><linearGradient id="Degradado_sin_nombre_67-4" x1="477.4" y1="778.87" x2="477.4" y2="566.48" xlink:href="#Degradado_sin_nombre_67"/><linearGradient id="Degradado_sin_nombre_49" x1="868.84" y1="689.6" x2="868.84" y2="477.21" gradientUnits="userSpaceOnUse"><stop offset="0" stop-color="aqua"/><stop offset="0.01" stop-color="#03fbff" stop-opacity="0.98"/><stop offset="0.14" stop-color="#2eb9ff" stop-opacity="0.73"/><stop offset="0.27" stop-color="#5381ff" stop-opacity="0.51"/><stop offset="0.39" stop-color="#7153ff" stop-opacity="0.32"/><stop offset="0.51" stop-color="#882fff" stop-opacity="0.18"/><stop offset="0.62" stop-color="#9915ff" stop-opacity="0.08"/><stop offset="0.72" stop-color="#a305ff" stop-opacity="0.02"/><stop offset="0.79" stop-color="#a700ff" stop-opacity="0"/></linearGradient><linearGradient id="Degradado_sin_nombre_49-2" x1="1578.84" y1="983.6" x2="1578.84" y2="771.21" xlink:href="#Degradado_sin_nombre_49"/><linearGradient id="Degradado_sin_nombre_70-3" x1="792.51" y1="478.16" x2="792.51" y2="265.77" xlink:href="#Degradado_sin_nombre_70"/><linearGradient id="Degradado_sin_nombre_70-4" x1="377.51" y1="1057.16" x2="377.51" y2="844.77" xlink:href="#Degradado_sin_nombre_70"/><linearGradient id="Degradado_sin_nombre_46-7" x1="370.4" y1="208.85" x2="370.4" y2="-469" xlink:href="#Degradado_sin_nombre_46"/><linearGradient id="Degradado_sin_nombre_75-7" x1="499.9" y1="436.11" x2="499.9" y2="-13.9" xlink:href="#Degradado_sin_nombre_75"/><linearGradient id="Degradado_sin_nombre_46-8" x1="605.12" y1="759.43" x2="605.12" y2="275.65" xlink:href="#Degradado_sin_nombre_46"/><linearGradient id="Degradado_sin_nombre_46-9" x1="104.12" y1="1065.43" x2="104.12" y2="581.65" xlink:href="#Degradado_sin_nombre_46"/><linearGradient id="Degradado_sin_nombre_46-10" x1="774.12" y1="1021.43" x2="774.12" y2="537.65" xlink:href="#Degradado_sin_nombre_46"/><linearGradient id="Degradado_sin_nombre_70-5" x1="695.43" y1="456.36" x2="695.43" y2="243.97" xlink:href="#Degradado_sin_nombre_70"/><linearGradient id="Degradado_sin_nombre_49-3" x1="358.84" y1="571.6" x2="358.84" y2="359.21" xlink:href="#Degradado_sin_nombre_49"/><linearGradient id="Degradado_sin_nombre_49-4" x1="536.84" y1="1036.6" x2="536.84" y2="824.21" xlink:href="#Degradado_sin_nombre_49"/><linearGradient id="Degradado_sin_nombre_70-6" x1="282.51" y1="360.16" x2="282.51" y2="147.77" xlink:href="#Degradado_sin_nombre_70"/><linearGradient id="Degradado_sin_nombre_46-11" x1="1900.06" y1="648.2" x2="1900.06" y2="198.19" xlink:href="#Degradado_sin_nombre_46"/><linearGradient id="Degradado_sin_nombre_70-7" x1="1810.33" y1="770.07" x2="1810.33" y2="557.69" xlink:href="#Degradado_sin_nombre_70"/><linearGradient id="Degradado_sin_nombre_70-8" x1="1625.14" y1="182.53" x2="1625.14" y2="-29.85" xlink:href="#Degradado_sin_nombre_70"/><linearGradient id="Degradado_sin_nombre_210-2" x1="1610.08" y1="1039.3" x2="1974.26" y2="1039.3" xlink:href="#Degradado_sin_nombre_210"/><linearGradient id="Degradado_sin_nombre_210-3" x1="425.62" y1="1039.48" x2="753.22" y2="1039.48" xlink:href="#Degradado_sin_nombre_210"/><linearGradient id="Degradado_sin_nombre_210-4" x1="1296.62" y1="762.48" x2="1624.22" y2="762.48" xlink:href="#Degradado_sin_nombre_210"/><linearGradient id="Degradado_sin_nombre_210-5" x1="643.27" y1="295.47" x2="1056.22" y2="295.47" xlink:href="#Degradado_sin_nombre_210"/><linearGradient id="Degradado_sin_nombre_210-6" x1="1424.92" y1="104.46" x2="1837.87" y2="104.46" xlink:href="#Degradado_sin_nombre_210"/><linearGradient id="Degradado_sin_nombre_210-7" x1="878.55" y1="684.98" x2="1282.07" y2="684.98" xlink:href="#Degradado_sin_nombre_210"/><linearGradient id="Degradado_sin_nombre_210-8" x1="-97.45" y1="44.91" x2="306.07" y2="44.91" xlink:href="#Degradado_sin_nombre_210"/></defs><g class="cls-1"><g id="Layer_1" data-name="Layer 1"><g class="cls-2"><rect class="cls-3" x="150.51" y="398.4" width="364.19" height="364.19"/></g><path class="cls-4" d="M1579,555h0a15.1,15.1,0,0,1-15.11-15.11V206.6A15.11,15.11,0,0,1,1579,191.49h0a15.12,15.12,0,0,1,15.11,15.11V539.89A15.11,15.11,0,0,1,1579,555Z"/><path class="cls-5" d="M1258,980h0a15.1,15.1,0,0,1-15.11-15.11V631.6A15.11,15.11,0,0,1,1258,616.49h0a15.12,15.12,0,0,1,15.11,15.11V964.89A15.11,15.11,0,0,1,1258,980Z"/><rect class="cls-6" x="1791.62" y="-297.98" width="59.17" height="711.7" rx="18.07"/><rect class="cls-7" x="633.62" y="-513.98" width="59.17" height="711.7" rx="18.07"/><path class="cls-8" d="M1286.84,285.44h0a24.5,24.5,0,0,1-24.5-24.49V-279.31a24.5,24.5,0,0,1,24.5-24.49h0a24.5,24.5,0,0,1,24.49,24.49V261A24.5,24.5,0,0,1,1286.84,285.44Z"/><path class="cls-9" d="M880.4,326.85h0a28.18,28.18,0,0,1-28.18-28.17v-621.5A28.18,28.18,0,0,1,880.4-351h0a28.18,28.18,0,0,1,28.18,28.18v621.5A28.18,28.18,0,0,1,880.4,326.85Z"/><rect class="cls-10" x="1660.88" y="347.75" width="37.41" height="450.01" rx="11.43"/><path class="cls-11" d="M1009.9,554.11h0a18.71,18.71,0,0,1-18.7-18.71V122.81a18.7,18.7,0,0,1,18.7-18.71h0a18.71,18.71,0,0,1,18.71,18.71V535.4A18.71,18.71,0,0,1,1009.9,554.11Z"/><path class="cls-12" d="M1363.63,403.73h0a18.7,18.7,0,0,1-18.7-18.7V108.18a18.71,18.71,0,0,1,18.7-18.71h0a18.71,18.71,0,0,1,18.71,18.71V385A18.71,18.71,0,0,1,1363.63,403.73Z"/><path class="cls-13" d="M968.63,1001.73h0a18.7,18.7,0,0,1-18.7-18.7V706.18a18.71,18.71,0,0,1,18.7-18.71h0a18.71,18.71,0,0,1,18.71,18.71V983A18.71,18.71,0,0,1,968.63,1001.73Z"/><path class="cls-14" d="M1132.12,877.43h0a28.79,28.79,0,0,1-28.8-28.8V422.45a28.79,28.79,0,0,1,28.8-28.8h0a28.79,28.79,0,0,1,28.79,28.8V848.63A28.79,28.79,0,0,1,1132.12,877.43Z"/><path class="cls-15" d="M1810.12,974.43h0a28.79,28.79,0,0,1-28.8-28.8V519.45a28.79,28.79,0,0,1,28.8-28.8h0a28.79,28.79,0,0,1,28.79,28.8V945.63A28.79,28.79,0,0,1,1810.12,974.43Z"/><rect class="cls-16" x="1186.72" y="361.97" width="37.41" height="212.39" rx="11.43"/><path class="cls-17" d="M1460.23,640.06h0A28.23,28.23,0,0,1,1432,611.83V347.69a28.24,28.24,0,0,1,28.24-28.24h0a28.24,28.24,0,0,1,28.23,28.24V611.83A28.23,28.23,0,0,1,1460.23,640.06Z"/><path class="cls-18" d="M1363.23,984.06h0A28.23,28.23,0,0,1,1335,955.83V691.69a28.24,28.24,0,0,1,28.24-28.24h0a28.24,28.24,0,0,1,28.23,28.24V955.83A28.23,28.23,0,0,1,1363.23,984.06Z"/><path class="cls-19" d="M103.84,490.44h0A24.5,24.5,0,0,1,79.34,466V-74.31a24.5,24.5,0,0,1,24.5-24.49h0a24.5,24.5,0,0,1,24.49,24.49V466A24.5,24.5,0,0,1,103.84,490.44Z"/><path class="cls-20" d="M180.63,608.73h0a18.7,18.7,0,0,1-18.7-18.7V313.18a18.71,18.71,0,0,1,18.7-18.71h0a18.71,18.71,0,0,1,18.71,18.71V590A18.71,18.71,0,0,1,180.63,608.73Z"/><rect class="cls-21" x="3.72" y="566.97" width="37.41" height="212.39" rx="11.43"/><path class="cls-22" d="M277.23,845.06h0A28.23,28.23,0,0,1,249,816.83V552.69a28.24,28.24,0,0,1,28.24-28.24h0a28.24,28.24,0,0,1,28.23,28.24V816.83A28.23,28.23,0,0,1,277.23,845.06Z"/><rect class="cls-23" x="1070.69" y="-30.52" width="37.41" height="212.39" rx="11.43"/><rect class="cls-24" x="458.69" y="566.48" width="37.41" height="212.39" rx="11.43"/><path class="cls-25" d="M868.84,689.6h0a18.71,18.71,0,0,1-18.7-18.71v-175a18.71,18.71,0,0,1,18.7-18.71h0a18.71,18.71,0,0,1,18.71,18.71v175A18.71,18.71,0,0,1,868.84,689.6Z"/><path class="cls-26" d="M1578.84,983.6h0a18.71,18.71,0,0,1-18.7-18.71v-175a18.71,18.71,0,0,1,18.7-18.71h0a18.71,18.71,0,0,1,18.71,18.71v175A18.71,18.71,0,0,1,1578.84,983.6Z"/><path class="cls-27" d="M792.51,478.16h0a18.71,18.71,0,0,1-18.7-18.71v-175a18.71,18.71,0,0,1,18.7-18.71h0a18.71,18.71,0,0,1,18.71,18.71v175A18.71,18.71,0,0,1,792.51,478.16Z"/><path class="cls-28" d="M377.51,1057.16h0a18.71,18.71,0,0,1-18.7-18.71v-175a18.71,18.71,0,0,1,18.7-18.71h0a18.71,18.71,0,0,1,18.71,18.71v175A18.71,18.71,0,0,1,377.51,1057.16Z"/><path class="cls-29" d="M370.4,208.85h0a28.18,28.18,0,0,1-28.18-28.17v-621.5A28.18,28.18,0,0,1,370.4-469h0a28.18,28.18,0,0,1,28.18,28.18v621.5A28.18,28.18,0,0,1,370.4,208.85Z"/><path class="cls-30" d="M499.9,436.11h0a18.71,18.71,0,0,1-18.7-18.71V4.81A18.7,18.7,0,0,1,499.9-13.9h0A18.71,18.71,0,0,1,518.61,4.81V417.4A18.71,18.71,0,0,1,499.9,436.11Z"/><path class="cls-31" d="M605.12,759.43h0a28.79,28.79,0,0,1-28.8-28.8V304.45a28.79,28.79,0,0,1,28.8-28.8h0a28.79,28.79,0,0,1,28.79,28.8V730.63A28.79,28.79,0,0,1,605.12,759.43Z"/><path class="cls-32" d="M104.12,1065.43h0a28.79,28.79,0,0,1-28.8-28.8V610.45a28.79,28.79,0,0,1,28.8-28.8h0a28.79,28.79,0,0,1,28.79,28.8v426.18A28.79,28.79,0,0,1,104.12,1065.43Z"/><path class="cls-33" d="M774.12,1021.43h0a28.79,28.79,0,0,1-28.8-28.8V566.45a28.79,28.79,0,0,1,28.8-28.8h0a28.79,28.79,0,0,1,28.79,28.8V992.63A28.79,28.79,0,0,1,774.12,1021.43Z"/><rect class="cls-34" x="676.72" y="243.97" width="37.41" height="212.39" rx="11.43"/><path class="cls-35" d="M358.84,571.6h0a18.71,18.71,0,0,1-18.7-18.71v-175a18.71,18.71,0,0,1,18.7-18.71h0a18.71,18.71,0,0,1,18.71,18.71v175A18.71,18.71,0,0,1,358.84,571.6Z"/><path class="cls-36" d="M536.84,1036.6h0a18.71,18.71,0,0,1-18.7-18.71v-175a18.71,18.71,0,0,1,18.7-18.71h0a18.71,18.71,0,0,1,18.71,18.71v175A18.71,18.71,0,0,1,536.84,1036.6Z"/><path class="cls-37" d="M282.51,360.16h0a18.71,18.71,0,0,1-18.7-18.71v-175a18.71,18.71,0,0,1,18.7-18.71h0a18.71,18.71,0,0,1,18.71,18.71v175A18.71,18.71,0,0,1,282.51,360.16Z"/><rect class="cls-38" x="1881.35" y="198.19" width="37.41" height="450.01" rx="11.43"/><path class="cls-39" d="M1810.33,770.07h0a18.71,18.71,0,0,1-18.71-18.7v-175a18.71,18.71,0,0,1,18.71-18.7h0a18.71,18.71,0,0,1,18.71,18.7v175A18.71,18.71,0,0,1,1810.33,770.07Z"/><rect class="cls-40" x="1606.43" y="-29.85" width="37.41" height="212.39" rx="11.43"/><g class="cls-2"><circle class="cls-41" cx="1529.42" cy="248.22" r="13.41"/><rect class="cls-41" x="1206.63" y="478" width="7.14" height="28.55" transform="translate(702.52 -711.54) rotate(45)"/><rect class="cls-41" x="1206.63" y="478" width="7.14" height="28.55" transform="translate(2414.04 -15.35) rotate(135)"/><rect class="cls-41" x="1786.81" y="649.44" width="7.14" height="28.55" transform="translate(993.71 -1071.59) rotate(45)"/><rect class="cls-41" x="1786.81" y="649.44" width="7.14" height="28.55" transform="translate(3525.69 -132.95) rotate(135)"/><circle class="cls-41" cx="1026.41" cy="601.24" r="13.41" transform="translate(204.57 1461.22) rotate(-76.66)"/><rect class="cls-41" x="1656.74" y="495.62" width="27.64" height="27.64"/><polygon class="cls-41" points="1148.52 208.94 1155.99 221.88 1163.46 234.81 1148.52 234.81 1133.58 234.81 1141.05 221.88 1148.52 208.94"/><polygon class="cls-41" points="1364.26 718.47 1371.73 731.41 1379.2 744.35 1364.26 744.35 1349.33 744.35 1356.8 731.41 1364.26 718.47"/></g><circle class="cls-41" cx="567.42" cy="516.22" r="13.41"/><rect class="cls-41" x="244.63" y="746" width="7.14" height="28.55" transform="translate(610.28 47.17) rotate(45)"/><rect class="cls-41" x="244.63" y="746" width="7.14" height="28.55" transform="translate(961.3 1122.38) rotate(135)"/><rect class="cls-41" x="824.81" y="917.44" width="7.14" height="28.55" transform="translate(901.45 -312.86) rotate(45)"/><rect class="cls-41" x="824.81" y="917.44" width="7.14" height="28.55" transform="translate(2072.96 1004.79) rotate(135)"/><circle class="cls-41" cx="64.41" cy="869.24" r="13.41" transform="translate(-796.23 731.34) rotate(-76.66)"/><rect class="cls-41" x="694.74" y="763.62" width="27.64" height="27.64"/><polygon class="cls-41" points="186.52 476.94 193.99 489.88 201.46 502.81 186.52 502.81 171.58 502.81 179.05 489.88 186.52 476.94"/><polygon class="cls-41" points="402.26 986.47 409.73 999.41 417.2 1012.35 402.26 1012.35 387.33 1012.35 394.8 999.41 402.26 986.47"/><circle class="cls-41" cx="723.42" cy="119.22" r="13.41"/><rect class="cls-41" x="400.63" y="349" width="7.14" height="28.55" transform="translate(375.25 -179.41) rotate(45)"/><rect class="cls-41" x="400.63" y="349" width="7.14" height="28.55" transform="translate(946.89 334.35) rotate(135)"/><rect class="cls-41" x="850.74" y="366.62" width="27.64" height="27.64"/><polygon class="cls-41" points="342.52 79.94 349.99 92.88 357.46 105.81 342.52 105.81 327.58 105.81 335.05 92.88 342.52 79.94"/><polygon class="cls-41" points="1713.26 938.13 1720.73 951.06 1728.2 964 1713.26 964 1698.33 964 1705.8 951.06 1713.26 938.13"/><g class="cls-2"><rect class="cls-42" x="1610.08" y="857.2" width="364.19" height="364.19"/></g><g class="cls-2"><rect class="cls-43" x="425.62" y="875.68" width="327.6" height="327.6" rx="96.94"/></g><g class="cls-2"><rect class="cls-44" x="1296.62" y="598.68" width="327.6" height="327.6" rx="96.94"/></g><g class="cls-2"><rect class="cls-45" x="643.27" y="89" width="412.95" height="412.95" rx="122.19"/></g><g class="cls-2"><rect class="cls-46" x="1424.92" y="-102.01" width="412.95" height="412.95" rx="122.19"/></g><g class="cls-2"><polygon class="cls-47" points="1282.07 860.08 878.55 860.08 1080.31 509.89 1282.07 860.08"/></g><g class="cls-2"><polygon class="cls-48" points="306.07 220 -97.45 220 104.31 -130.19 306.07 220"/></g><polygon class="cls-41" points="1131.86 961.13 1139.33 974.06 1146.8 987 1131.86 987 1116.92 987 1124.39 974.06 1131.86 961.13"/></g></g></svg>