<svg id="Layer_1" data-name="Layer 1" xmlns="http://www.w3.org/2000/svg" viewBox="0 0 1025.75 1024"><defs><style>.cls-1{fill:#1a41d1;}</style></defs><path class="cls-1" d="M1000.63,386.16a81.61,81.61,0,0,1-115.43,0l-66.58-66.61-64.74,64.74a81.61,81.61,0,0,1-115.4-115.43l64.7-64.71-64.7-64.74a81.64,81.64,0,0,1,115.4-115.5l64.74,64.74,64.71-64.74a81.65,81.65,0,1,1,115.43,115.5L934,204.15l66.61,66.51A81.7,81.7,0,0,1,1000.63,386.16Z" transform="translate(1.21)"/><rect class="cls-1" x="614.4" y="614.4" width="409.6" height="409.6"/><rect class="cls-1" y="614.4" width="409.6" height="409.6" rx="25"/><path class="cls-1" d="M407.9,409.27a6.18,6.18,0,0,0-1.31.33H-1.21L203.59,0S397.17,394.77,407.9,409.27Z" transform="translate(1.21)"/></svg>