<svg id="Layer_1" data-name="Layer 1" xmlns="http://www.w3.org/2000/svg" viewBox="0 0 1920 1080"><defs><style>.cls-1{fill:#fff;}</style></defs><rect class="cls-1" x="1510.6" y="549.15" width="35.1" height="8.78" transform="translate(56.17 1242.69) rotate(-45)"/><rect class="cls-1" x="1523.81" y="536" width="8.78" height="35.1" transform="translate(56.18 1242.73) rotate(-45)"/><rect class="cls-1" x="1871.76" y="93.67" width="35.1" height="8.78" transform="translate(484.03 1364.66) rotate(-45)"/><rect class="cls-1" x="1884.92" y="80.51" width="8.78" height="35.1" transform="translate(484.03 1364.67) rotate(-45)"/><circle class="cls-1" cx="1302.26" cy="687.45" r="16.48" transform="translate(167.84 1626.37) rotate(-67.44)"/><rect class="cls-1" x="1847.72" y="521.05" width="33.98" height="33.98"/><polygon class="cls-1" points="1580 76.81 1589.18 92.71 1598.37 108.61 1580 108.61 1561.64 108.61 1570.82 92.71 1580 76.81"/><polygon class="cls-1" points="1771.03 830.26 1780.21 846.17 1789.4 862.07 1771.03 862.07 1752.68 862.07 1761.86 846.17 1771.03 830.26"/><circle class="cls-1" cx="738.04" cy="582.95" r="16.48"/><rect class="cls-1" x="393.93" y="809.01" width="35.1" height="8.78" transform="translate(-454.64 529.19) rotate(-45)"/><rect class="cls-1" x="407.1" y="795.87" width="8.78" height="35.1" transform="translate(-454.65 529.21) rotate(-45)"/><rect class="cls-1" x="140.26" y="760.6" width="35.1" height="8.78" transform="translate(-494.71 335.65) rotate(-45)"/><rect class="cls-1" x="153.43" y="747.47" width="8.78" height="35.1" transform="translate(-494.72 335.67) rotate(-45)"/><rect class="cls-1" x="1079.53" y="1041.42" width="35.1" height="8.78" transform="translate(-418.17 1082.06) rotate(-45)"/><rect class="cls-1" x="1092.7" y="1028.27" width="8.78" height="35.1" transform="translate(-418.18 1082.07) rotate(-45)"/><circle class="cls-1" cx="119.72" cy="1016.89" r="16.48" transform="translate(-895.31 882.37) rotate(-75.74)"/><rect class="cls-1" x="894.55" y="887.07" width="33.98" height="33.98"/><polygon class="cls-1" points="379.5 575.71 388.68 591.61 397.87 607.51 379.5 607.51 361.14 607.51 370.32 591.61 379.5 575.71"/><polygon class="cls-1" points="479.94 1031.53 489.12 1047.43 498.3 1063.34 479.94 1063.34 461.58 1063.34 470.77 1047.43 479.94 1031.53"/><circle class="cls-1" cx="929.81" cy="56.14" r="16.48"/><rect class="cls-1" x="519.84" y="390.56" width="35.1" height="8.78" transform="translate(-121.87 495.67) rotate(-45)"/><rect class="cls-1" x="533.02" y="377.41" width="8.78" height="35.1" transform="translate(-121.88 495.69) rotate(-45)"/><rect class="cls-1" x="1086.32" y="399.06" width="33.98" height="33.98"/><polygon class="cls-1" points="443.22 109.78 452.4 125.68 461.58 141.58 443.22 141.58 424.85 141.58 434.04 125.68 443.22 109.78"/><polygon class="cls-1" points="94.31 481.62 103.5 497.53 112.68 513.42 94.31 513.42 75.95 513.42 85.13 497.53 94.31 481.62"/><polygon class="cls-1" points="286.08 46.65 295.26 62.56 304.44 78.45 286.08 78.45 267.71 78.45 276.89 62.56 286.08 46.65"/><polygon class="cls-1" points="1493.47 846.75 1502.65 862.65 1511.83 878.55 1493.47 878.55 1475.1 878.55 1484.29 862.65 1493.47 846.75"/><rect class="cls-1" x="1753.49" y="1004.98" width="35.1" height="8.78" transform="translate(-195.01 1547.95) rotate(-45)"/><rect class="cls-1" x="1766.7" y="991.83" width="8.78" height="35.1" transform="translate(-195 1547.99) rotate(-45)"/><circle class="cls-1" cx="1309.22" cy="988.78" r="16.48" transform="translate(-106.14 1818.53) rotate(-67.44)"/><polygon class="cls-1" points="1695.25 661.06 1704.44 676.96 1713.62 692.86 1695.25 692.86 1676.89 692.86 1686.07 676.96 1695.25 661.06"/><circle class="cls-1" cx="1188.19" cy="846.17" r="16.48"/><rect class="cls-1" x="1514.38" y="1001.69" width="28.55" height="7.14" transform="translate(-263.09 1375.36) rotate(-45)"/><rect class="cls-1" x="1525.09" y="990.99" width="7.14" height="28.55" transform="translate(-263.1 1375.36) rotate(-45)"/><polygon class="cls-1" points="719.97 797.88 729.15 813.79 738.33 829.68 719.97 829.68 701.6 829.68 710.78 813.79 719.97 797.88"/><polygon class="cls-1" points="734.9 976.15 742.37 989.09 749.84 1002.03 734.9 1002.03 719.97 1002.03 727.44 989.09 734.9 976.15"/><circle class="cls-1" cx="1335.23" cy="433.03" r="16.48"/><rect class="cls-1" x="969.99" y="653.77" width="35.1" height="8.78" transform="translate(-176.15 891.07) rotate(-45)"/><rect class="cls-1" x="983.17" y="640.63" width="8.78" height="35.1" transform="translate(-176.15 891.08) rotate(-45)"/><circle class="cls-1" cx="722.53" cy="109.19" r="16.48"/><circle class="cls-1" cx="345.63" cy="309.87" r="16.48"/><circle class="cls-1" cx="92.43" cy="212.35" r="16.48"/><rect class="cls-1" x="879.04" y="413.31" width="33.98" height="33.98"/><polygon class="cls-1" points="704.46 324.12 713.64 340.03 722.82 355.92 704.46 355.92 686.09 355.92 695.27 340.03 704.46 324.12"/><rect class="cls-1" x="872.16" y="243.88" width="35.1" height="8.78" transform="translate(85.03 701.83) rotate(-45)"/><rect class="cls-1" x="885.33" y="230.74" width="8.78" height="35.1" transform="translate(85.03 701.85) rotate(-45)"/><rect class="cls-1" x="1700.58" y="307.13" width="33.98" height="33.98"/><polygon class="cls-1" points="1058.84 221.13 1068.02 237.03 1077.2 252.93 1058.84 252.93 1040.47 252.93 1049.65 237.03 1058.84 221.13"/><rect class="cls-1" x="1301.76" y="236.52" width="33.98" height="33.98"/><polygon class="cls-1" points="1190.07 56.14 1199.25 72.05 1208.44 87.94 1190.07 87.94 1171.71 87.94 1180.89 72.05 1190.07 56.14"/></svg>